<?xml version="1.0" encoding="UTF-8"?>
<!-- Generated by Pixelmator Pro 3.5.5 -->
<svg width="1272" height="848" viewBox="0 0 1272 848" xmlns="http://www.w3.org/2000/svg">
    <path id="Shape" fill="none" stroke="#ffffff" stroke-width="4" d="M 755.280579 391.485901 C 744.600647 389.668579 738.469971 389.221741 734.766663 389.320465 C 730.753784 389.42746 727.211487 388.987152 725.999268 388.230652 C 724.184509 387.098175 723.855286 387.250488 722.945557 389.64328 C 722.384705 391.118347 721.997986 396.28302 722.086121 401.1203 C 722.174316 405.957611 721.980103 410.609436 721.654602 411.457703 C 721.259033 412.488525 719.748169 413 717.098755 413 C 714.198181 413 712.988342 412.530548 712.588867 411.25 C 712.288635 410.287506 711.753784 406.346344 711.400391 402.491913 C 711.026611 398.416046 711.235291 393.185974 711.899109 389.991913 C 712.526855 386.971344 714.13562 382.137512 715.474182 379.25 C 716.812805 376.362488 717.467529 374 716.92926 374 C 716.39093 374 715.52655 372.884979 715.008423 371.522186 C 714.490295 370.159363 711.849609 367.451752 709.140198 365.505249 C 706.430786 363.558746 702.054565 359.386261 699.415283 356.233093 C 696.77594 353.079895 692.115295 347.710938 689.058289 344.302063 C 686.001221 340.893219 681.474976 335.642334 679 332.633484 C 676.525024 329.624573 674.262146 327.12616 673.971375 327.08136 C 673.680664 327.036621 666.759155 334.087524 658.590271 342.75 C 650.421387 351.412506 641.884216 359.766876 639.618835 361.315308 C 637.353516 362.863739 633.785828 364.941071 631.690674 365.93161 C 629.099487 367.156708 627.230713 369.047729 625.846558 371.845367 C 624.727356 374.107391 622.166565 377.333221 620.155823 379.013855 C 618.145142 380.694489 615.9375 382.521637 615.25 383.074219 C 614.5625 383.62677 614 385.446869 614 387.118866 C 614 388.790894 612.818604 393.111877 611.374695 396.721069 C 609.234619 402.070465 608.85437 404.299988 609.3172 408.784576 C 609.752075 412.998047 609.323059 416.055481 607.484619 421.844818 C 605.084229 429.403717 605.084229 429.403717 608.203247 434.855225 C 610.363403 438.630798 611.549316 442.334717 612.060852 446.903381 C 612.467041 450.531525 613.9422 457.207733 615.338867 461.73941 C 616.735596 466.271118 619.458008 473.477509 621.388733 477.753632 C 623.319458 482.029755 625.884827 489.420959 627.089478 494.178528 C 629.244019 502.687195 629.259644 503.269379 628.046753 529.779724 C 627.368591 544.602783 626.941345 571.078857 627.097351 588.615356 C 627.253357 606.151917 627.062988 627.293579 626.674316 635.596924 C 626.285583 643.900208 625.071289 656.187683 623.97583 662.902405 C 622.880371 669.617065 621.104431 676.835083 620.029419 678.942383 C 618.598267 681.747681 618.291321 683.540649 618.883423 685.636902 C 619.328247 687.211609 619.52887 688.972656 619.329285 689.550415 C 619.1297 690.128113 620.617249 692.529419 622.634949 694.886597 C 624.652588 697.243774 627.922668 700.22998 629.901733 701.522644 C 631.98407 702.88269 637.022217 704.531555 641.860474 705.436401 C 646.45874 706.296387 652.815002 707 655.985474 707 C 659.155945 707 663.164246 707.282837 664.892761 707.62854 C 666.905273 708.031067 669.157715 709.673889 671.155701 712.196594 C 674.106506 715.922241 674.212036 716.348877 673.100647 720.05835 C 672.286926 722.774414 671.245056 724.129761 669.712769 724.465576 C 668.495728 724.732361 659.479065 726.097778 649.675659 727.499878 C 639.872253 728.901978 626.328247 730.329041 619.57782 730.671143 C 612.827454 731.013306 606.155884 731.004944 604.752136 730.652649 C 603.108887 730.240234 601.825928 728.939392 601.149963 727.000305 C 600.53595 725.238953 599.014282 723.575745 597.484924 722.994263 C 596.046631 722.447388 593.786987 722 592.463501 722 C 590.591736 722 589.87146 722.716675 589.221252 725.226074 C 588.528198 727.900513 587.726563 728.60791 584.532593 729.36322 C 582.413635 729.86438 575.689453 729.970947 569.589966 729.600098 C 563.490479 729.229187 556.802368 728.537598 554.727417 728.06311 C 552.652527 727.588623 549.908081 726.514587 548.628723 725.676331 C 546.497803 724.28009 546.245605 723.199219 545.623718 712.796265 C 545.228271 706.181946 545.385132 698.321167 545.999451 693.970154 C 546.579529 689.861572 547.933716 684.142578 549.008789 681.261292 C 550.083862 678.380005 552.546692 672.878784 554.48175 669.036255 C 557.164124 663.709717 558.003845 660.796753 558.016235 656.774963 C 558.025146 653.873718 557.121887 646.549988 556.008972 640.5 C 554.896057 634.450012 553.386047 625.450012 552.653442 620.5 L 551.321411 611.5 L 547.749207 619 C 545.784485 623.125 542.377808 631 540.178772 636.5 C 537.979797 642 533.844604 651.674988 530.989502 658 C 528.134399 664.325012 523.608521 673.775024 520.931946 679 C 518.255432 684.224976 514.363281 690.256104 512.282776 692.402466 C 510.20224 694.548889 507.679077 696.522583 506.675751 696.788574 C 505.270935 697.160889 504.997223 697.873108 505.485382 699.886047 C 505.834045 701.32373 506.802887 705.200012 507.638428 708.5 C 508.473938 711.799988 509.969666 716.299988 510.962219 718.5 C 511.954773 720.700012 515.406799 725.064636 518.633423 728.199158 C 522.238281 731.701172 527.074219 735.097717 531.177246 737.009399 C 535.355591 738.956177 538.850281 741.426025 540.515442 743.609131 C 542.302002 745.951416 542.929382 747.65686 542.424561 748.79895 C 542.011047 749.734497 541.63385 750.750732 541.586365 751.05719 C 541.538879 751.363647 540.819519 752.639221 539.987793 753.891846 C 538.987366 755.39856 536.91803 756.460327 533.873352 757.029175 C 531.279602 757.513733 521.9021 757.497925 512.385559 756.99292 C 503.098511 756.500122 491.522064 755.390747 486.660126 754.527649 C 481.798218 753.664551 476.553833 752.303528 475.005981 751.503113 C 473.458099 750.702637 471.228851 748.7995 470.052094 747.273865 C 468.875305 745.74823 466.460388 742.25 464.685608 739.5 C 461.740051 734.935913 461.166321 734.528809 458.105072 734.830627 C 455.536835 735.083801 453.484894 734.28894 449.343414 731.436584 C 446.369019 729.388062 442.824951 726.392273 441.467712 724.779236 C 439.63324 722.599121 439 720.675842 439 717.284363 C 439 714.775146 439.922791 707.272217 441.050659 700.611084 C 442.178497 693.950012 444.008423 686.608643 445.117096 684.296997 C 446.225769 681.985352 448.412079 675.218384 449.975525 669.259216 C 451.538971 663.30011 456.62558 647.641418 461.279144 634.462219 C 465.932678 621.282959 472.533997 601.950012 475.948761 591.5 C 479.363525 581.049988 483.3255 570.025024 484.753174 567 C 486.180847 563.974976 488.112274 559.626099 489.045227 557.335876 C 489.97818 555.045593 491.698853 551.827271 492.868927 550.184082 C 494.927582 547.292969 494.94873 546.958862 493.522583 539.848145 C 492.712006 535.806641 491.391266 527.325012 490.587585 521 C 489.783936 514.674988 488.648987 502.975006 488.065491 495 C 487.482025 487.024994 486.539215 473.413513 485.970398 464.752258 C 485.401581 456.091003 484.533295 443.490997 484.040924 436.752258 C 483.548523 430.013519 482.591187 420.407593 481.913483 415.405762 C 481.152283 409.787537 480.906006 401.569733 481.269104 393.905762 C 481.592377 387.082581 482.817657 376.774994 483.991943 371 C 485.166199 365.225006 487.322937 357.799988 488.784637 354.5 C 490.246368 351.200012 494.107056 343.774994 497.363983 338 C 500.620911 332.224976 504.315796 325.474976 505.57489 323 C 506.833954 320.525024 509.098969 315.13678 510.608215 311.026184 C 512.726501 305.256836 514.50946 302.406189 518.426147 298.526184 C 521.216797 295.76178 523.664917 292.836731 523.866455 292.026062 C 524.067993 291.215454 525.997742 287.895203 528.154724 284.647705 C 530.311768 281.400269 531.946838 278.679016 531.788269 278.600525 C 531.629761 278.522034 529.700012 277.509766 527.5 276.351135 C 525.299988 275.192444 521.733704 273.92926 519.57489 273.544067 C 517.416077 273.158875 513.9729 272.172729 511.923431 271.352661 C 509.740265 270.479126 507.969208 268.990234 507.64679 267.757324 C 507.344116 266.599915 507.307098 265.312134 507.564545 264.895569 C 507.821991 264.479004 506.900269 262.916443 505.516296 261.423096 C 504.132324 259.929749 503 258.323669 503 257.854004 C 503 257.384277 504.36496 257 506.033234 257 C 507.701538 257 511.34552 258.154846 514.130981 259.566406 C 517.398376 261.222107 521.598022 262.334167 525.966187 262.700378 C 532.616943 263.257935 532.803528 263.20697 536.496765 259.822327 C 539.644836 256.937378 540.291992 255.654419 540.473694 251.938354 C 540.593018 249.497253 542.01416 243.224976 543.631836 238 C 545.249451 232.775024 548.990967 224.224976 551.946228 219 C 554.90155 213.775024 557.288147 208.825012 557.249756 208 C 557.211365 207.174988 557.628479 205.025085 558.176636 203.222351 C 559.015198 200.464844 560.312561 199.404114 566.352661 196.537842 C 570.301331 194.664063 575.840393 192.824768 578.661743 192.4505 C 582.366638 191.958984 585.239563 192.250977 589.005188 193.501709 C 592.322083 194.603455 595.984802 195.063721 599.073059 194.767029 C 602.866699 194.402466 604.943848 193.448486 608.580566 190.400269 C 611.139893 188.255127 615.093811 185.026978 617.366943 183.226685 C 619.640137 181.426331 623.974976 178.473572 627 176.664978 C 630.025024 174.856384 635.875 171.999695 640 170.316772 C 644.125 168.633911 651.099976 166.022095 655.5 164.512817 C 659.900024 163.003601 666.875 160.926086 671 159.896179 C 675.125 158.866272 682.01709 158.018311 686.315735 158.01178 C 690.61438 158.00531 694.956055 158.441284 695.963867 158.980652 C 697.560303 159.835083 698.239502 159.030151 701.237549 152.730652 C 703.857666 147.225403 706.749573 143.418152 713.356567 136.775635 C 718.129272 131.977234 724.624634 126.292175 727.790588 124.142212 C 730.956604 121.992188 735.689636 119.505676 738.308472 118.616577 C 740.927246 117.727478 745.641663 117.009888 748.784973 117.021973 C 752.444702 117.036011 755.938538 117.759338 758.5 119.033264 C 760.700012 120.12738 765.302429 122.705017 768.727661 124.761292 C 772.152893 126.817566 777.720459 130.974976 781.099976 134 C 784.479553 137.025024 788.939331 141.61438 791.010681 144.198608 C 793.970642 147.891418 795.029968 150.351074 795.959534 155.689026 C 797.116272 162.33136 797.088623 162.526978 794.705933 164.576477 C 793.365967 165.729126 791.522461 168.921692 790.609253 171.671143 C 789.696045 174.420593 788.54071 179.177734 788.04187 182.242676 C 787.54303 185.307556 786.20459 189.638855 785.067444 191.867737 C 783.839783 194.274231 782.994446 197.865845 782.986328 200.710144 C 782.978821 203.344543 782.701172 206.513306 782.369263 207.75177 C 781.985291 209.184448 780.626282 210.313049 778.632935 210.854553 C 776.899414 211.3255 775.004883 211.32251 774.391602 210.8479 C 773.658997 210.280945 772.503845 211.602234 770.984558 214.745056 C 769.720337 217.360291 768.419128 220.005127 768.092957 220.622437 C 767.766846 221.239807 765.924988 224.066772 764 226.904663 C 761.400818 230.73645 759.547668 232.350464 756.799683 233.175598 C 754.764526 233.786743 750.489563 234.042419 747.299683 233.743713 C 744.109863 233.445007 739.522583 232.510742 737.105835 231.667603 C 732.907776 230.203003 732.636963 230.226746 731.039185 232.19989 C 730.119385 233.335815 727.311951 237.91803 724.800415 242.382629 C 722.288879 246.847168 716.632385 256.965942 712.230408 264.868713 C 704.775757 278.251831 704.292053 279.473755 705.178101 282.682861 C 705.701355 284.577881 706.887817 287.099304 707.814697 288.286072 C 708.741638 289.472778 711.637512 292.618835 714.25 295.277283 C 718.292664 299.390991 719.020996 300.735352 719.141113 304.305359 C 719.21875 306.612427 719.20929 309.814514 719.120056 311.421143 C 719.030823 313.02771 719.486145 315.942993 720.131836 317.899414 C 720.777527 319.855896 723.203125 324.391418 725.522095 327.978333 C 727.841064 331.565247 731.484741 336.874573 733.619202 339.776825 C 736.826172 344.13739 739.207703 345.953339 747.335083 350.235199 C 752.744385 353.085052 758.457581 356.733582 760.031067 358.342987 C 761.775208 360.126923 763.357849 363.266052 764.085388 366.384613 C 764.741699 369.19809 765.448242 377.125 765.655457 384 C 765.862671 390.875 765.585815 424.625 765.040222 459 C 764.494629 493.375 763.563965 546.025024 762.971985 576 C 762.380005 605.974976 761.29657 655.474976 760.564392 686 C 759.832153 716.525024 759.4552 744.994202 759.726624 749.264954 C 760.065613 754.599365 759.834351 757.49469 758.98761 758.514954 C 758.297974 759.345886 756.101135 760 754 760 C 751.934692 760 749.736267 759.387146 749.114624 758.638123 C 748.279358 757.631714 748.249756 749.083252 749.001099 725.888123 C 749.560303 708.624634 750.465759 671.437561 751.013184 643.250122 C 751.560669 615.062622 752.437012 566.574829 752.960693 535.49939 C 753.484314 504.42395 754.220581 459.308228 754.59668 435.242249 L 755.280579 391.485901 Z"/>
</svg>
